<?xml version="1.0" encoding="UTF-8" standalone="no"?>
<svg
   xmlns:dc="http://purl.org/dc/elements/1.1/"
   xmlns:cc="http://creativecommons.org/ns#"
   xmlns:rdf="http://www.w3.org/1999/02/22-rdf-syntax-ns#"
   xmlns:svg="http://www.w3.org/2000/svg"
   xmlns="http://www.w3.org/2000/svg"
   viewBox="0 0 391.4375 190.825"
   height="190.825"
   width="391.4375"
   xml:space="preserve"
   version="1.1"
   id="svg2"><metadata
     id="metadata8"><rdf:RDF><cc:Work
         rdf:about=""><dc:format>image/svg+xml</dc:format><dc:type
           rdf:resource="http://purl.org/dc/dcmitype/StillImage" /></cc:Work></rdf:RDF></metadata><defs
     id="defs6"><clipPath
       id="clipPath18"
       clipPathUnits="userSpaceOnUse"><path
         id="path20"
         d="M 0,1526.56 0,0 l 3131.51,0 0,1526.56 -3131.51,0 z" /></clipPath></defs><g
     transform="matrix(1.25,0,0,-1.25,0,190.825)"
     id="g10"><g
       transform="scale(0.1,0.1)"
       id="g12"><g
         id="g14"><g
           clip-path="url(#clipPath18)"
           id="g16"><path
             id="path22"
             style="fill:#00403b;fill-opacity:1;fill-rule:nonzero;stroke:none"
             d="m 2157.3,938.023 45.51,-107.011 16.57,0 49.37,107.011 c 5.82,12.161 8.29,15.723 16.85,16.832 l 0,4.145 -48.57,0 0,-4.145 c 3.34,-0.273 11.58,-1.382 11.58,-10.761 0,-3.301 -1.89,-8.571 -2.75,-10.75 l -26.48,-60.41 -24.56,62.347 c -1.13,2.742 -2.48,6.328 -2.48,9.086 0,8.551 7.45,9.926 10.47,10.488 l 0,4.145 -62.87,0 0,-4.145 c 8.54,-1.109 12.7,-6.062 17.36,-16.832" /><path
             id="path24"
             style="fill:#00403b;fill-opacity:1;fill-rule:nonzero;stroke:none"
             d="m 262.09,540.945 c -20.977,-15.605 -53.496,-19.636 -80.574,-19.636 -47.434,0 -48.086,27.086 -48.086,60.289 l 0,116.445 46.726,0 c 21.668,0 48.75,-0.672 73.809,-16.25 12.871,-8.105 37.93,-29.785 37.93,-74.492 0,-33.164 -14.903,-54.844 -29.805,-66.356 z m -128.66,358.922 28.445,0 c 27.773,0 49.453,-0.652 68.398,-8.789 27.071,-12.195 38.606,-35.887 38.606,-67.703 0,-60.984 -53.508,-74.512 -99.563,-74.512 l -35.886,0 0,151.004 z M 267.512,730.562 c 51.472,13.555 96.863,43.34 96.863,106.993 0,39.988 -17.637,80.613 -64.355,99.586 -26.415,10.812 -58.907,12.871 -100.899,12.871 l -199.121,0 0,-10.18 c 41.3281,-5.414 41.3281,-29.125 41.3281,-64.328 l 0,-331.836 C 41.3281,506.422 36.6016,488.801 0,482.012 l 0,-10.141 204.531,0 c 36.582,0 83.321,0 123.262,24.367 31.152,18.973 60.273,55.535 60.273,108.387 0,74.492 -55.539,112.422 -120.554,125.937" /><path
             id="path26"
             style="fill:#00403b;fill-opacity:1;fill-rule:nonzero;stroke:none"
             d="m 509.902,738.688 0,58.242 -130.691,-68.387 3.394,-7.461 c 42.668,0 43.333,-33.176 43.333,-67.727 l 0,-100.222 c 0,-12.863 -0.665,-31.145 -5.391,-43.363 -8.828,-19.598 -24.402,-25.04 -34.551,-28.411 l 0,-9.488 165.227,0 0,9.488 c -37.239,13.52 -41.321,21.661 -41.321,71.774 l 0,92.762 c 0,16.25 0,35.898 13.543,54.882 12.219,16.914 30.5,27.071 52.832,27.071 29.797,0 42.004,-18.965 50.129,-33.164 l 8.125,0 14.207,90.761 c -7.449,2.696 -20.3,7.442 -39.258,7.442 -51.472,0 -78.562,-30.496 -99.578,-54.199" /><path
             id="path28"
             style="fill:#00403b;fill-opacity:1;fill-rule:nonzero;stroke:none"
             d="m 1008.14,585.664 0,205.184 -124.617,-25.059 0,-9.484 c 33.196,-4.746 39.961,-17.617 39.961,-50.098 l 0,-109.062 c 0,-14.227 -0.652,-34.532 -16.25,-52.813 -12.183,-14.238 -32.515,-24.391 -58.914,-24.391 -31.152,0 -52.148,15.582 -60.293,40.621 -3.371,10.86 -4.707,21.68 -4.707,36.583 l 0,193.703 -122.617,-25.059 0,-9.484 c 34.563,-4.746 37.949,-22.352 37.949,-58.262 l 0,-118.477 c 0,-25.086 1.348,-54.875 21.68,-80.605 8.789,-11.512 33.856,-38.602 90.059,-38.602 54.875,0 94.804,29.11 117.839,60.27 4.758,-18.969 13.547,-39.27 44.692,-62.297 l 74.488,55.52 -4.05,6.777 c -35.22,6.769 -35.22,31.828 -35.22,65.035" /><path
             id="path30"
             style="fill:#00403b;fill-opacity:1;fill-rule:nonzero;stroke:none"
             d="m 1403.61,549.742 0,116.485 c 0,29.816 -0.69,60.285 -20.99,86.015 -14.91,19.649 -44.69,38.606 -88.72,38.606 -58.24,0 -92.12,-31.828 -114.47,-52.825 l 0,58.907 -131.38,-68.387 4.74,-8.137 c 41.31,-1.355 41.98,-23.035 41.98,-66.367 l 0,-102.937 c 0,-33.872 -0.67,-63.653 -40.64,-69.762 l 0,-9.469 163.92,0 -0.67,9.469 c -36.6,10.18 -37.95,25.082 -37.95,61.625 l 0,115.801 c 0,16.273 0.69,39.277 24.4,57.609 10.82,8.105 26.4,14.871 48.08,14.871 66.39,0 67.05,-55.547 67.05,-72.48 l 0,-115.801 c 0,-35.215 -0.66,-53.477 -37.26,-61.625 l 0,-9.469 162.56,0 0,9.469 c -39.97,7.461 -40.65,26.41 -40.65,68.402" /><path
             id="path32"
             style="fill:#00403b;fill-opacity:1;fill-rule:nonzero;stroke:none"
             d="M 1623.01,649.312 1597.3,661.5 c -21.72,10.137 -47.46,22.363 -47.46,48.73 0,22.364 21,39.981 51.49,39.981 48.77,0 58.23,-33.867 62.97,-50.781 l 9.47,0 0,75.148 c -14.88,5.418 -44.69,16.27 -87.35,16.27 -77.88,0 -119.88,-43.36 -119.88,-94.825 0,-47.414 34.55,-66.359 52.85,-76.535 l 28.43,-13.531 c 23.71,-12.168 53.51,-27.766 53.51,-57.562 0,-33.864 -31.13,-46.735 -59.6,-46.735 -50.75,0 -62.97,35.203 -69.07,54.879 l -10.17,0 0,-80.609 c 25.72,-8.141 49.43,-15.598 92.12,-15.598 53.48,0 83.28,17.617 98.2,30.469 20.96,18.328 33.18,46.062 33.18,73.16 0,55.527 -46.71,77.871 -62.98,85.351" /><path
             id="path34"
             style="fill:#00403b;fill-opacity:1;fill-rule:nonzero;stroke:none"
             d="m 2257.08,779.324 -120.58,0 0,-9.484 c 7.46,-1.348 28.47,-4.727 28.47,-28.406 0,-7.481 -3.39,-15.598 -6.79,-23.743 l -65.66,-148.984 -62.32,148.984 c -2.03,6.789 -4.73,15.586 -4.73,22.348 0,23.719 18.3,27.77 27.09,29.801 l 0,9.484 -156.45,0 0,-9.484 c 17.6,-3.36 25.75,-8.106 36.58,-30.469 l 15.54,-33.183 -62.27,-137.481 -60.27,146.973 c -2.71,6.738 -6.12,15.566 -6.12,24.359 0,17.633 10.18,27.086 27.79,29.801 l 0,9.484 -157.13,0 0,-9.484 c 25.77,-8.809 29.1,-14.219 44.02,-48.731 l 111.06,-255.347 39.92,0 86.04,184.215 81.29,-184.215 39.96,0 119.84,255.347 c 14.26,30.45 18.32,39.922 44.72,48.731 l 0,9.484" /><path
             id="path36"
             style="fill:#00403b;fill-opacity:1;fill-rule:nonzero;stroke:none"
             d="m 760.781,935.355 45,-103.464 16.184,0 34.871,74.648 32.898,-74.648 16.204,0 48.554,103.464 c 5.781,12.336 7.434,16.18 18.125,19.735 l 0,3.848 -48.855,0 0,-3.848 c 3.035,-0.516 11.543,-1.895 11.543,-11.508 0,-3.02 -1.367,-6.309 -2.746,-9.586 l -26.621,-60.398 -25.223,60.398 c -0.844,2.746 -1.965,6.289 -1.965,9.043 0,9.602 7.434,11.254 10.984,12.051 l 0,3.848 -63.386,0 0,-3.848 c 7.129,-1.352 10.437,-3.27 14.836,-12.32 l 6.296,-13.465 -25.234,-55.707 -24.402,59.57 c -1.125,2.734 -2.492,6.289 -2.492,9.871 0,7.145 4.121,10.969 11.25,12.051 l 0,3.848 -63.672,0 0,-3.848 c 10.449,-3.555 11.797,-5.738 17.851,-19.735" /><path
             id="path38"
             style="fill:#00403b;fill-opacity:1;fill-rule:nonzero;stroke:none"
             d="m 2382.77,544.352 0,252.578 -130.01,-63.653 4.04,-7.441 c 39.97,2.012 42.01,-16.25 42.01,-51.465 l 0,-125.976 c 0,-38.594 0,-54.864 -40.64,-67.055 l 0,-9.469 166.61,0 0,9.469 c -36.6,8.832 -42.01,18.301 -42.01,63.012" /><path
             id="path40"
             style="fill:#00403b;fill-opacity:1;fill-rule:nonzero;stroke:none"
             d="m 2706.02,573.457 c -20.31,-20.324 -47.45,-47.445 -98.87,-47.445 -79.25,0 -106.35,66.386 -106.35,117.218 0,54.141 27.1,108.329 92.8,108.329 60.95,0 75.85,-42.676 86.7,-72.442 l 9.47,0 15.56,77.188 c -14.9,10.156 -51.47,34.543 -111.73,34.543 -102.94,0 -168.64,-77.883 -168.64,-173.391 0,-67.715 39.28,-157.098 149,-157.098 52.14,0 102.96,18.27 142.22,107.664 l -10.16,5.434" /><path
             id="path42"
             style="fill:#00403b;fill-opacity:1;fill-rule:nonzero;stroke:none"
             d="m 3047.3,519.289 -129.33,136.078 94.83,84.672 c 26.38,23.023 27.04,23.719 46.03,29.801 l 0,9.484 -132.04,0 0,-9.484 c 6.06,-1.348 18.95,-4.051 18.95,-16.238 0,-8.821 -6.1,-14.914 -18.95,-27.766 l -94.83,-83.297 0,315.559 -130.73,-67.032 4.08,-8.121 c 4.76,1.336 8.81,2.024 12.87,2.024 29.11,0 29.81,-26.399 29.81,-53.489 l 0,-295.976 c 0,-29.125 -3.4,-48.055 -38.63,-54.164 l 0,-9.469 161.2,0 0,9.469 c -37.92,8.129 -38.6,29.129 -38.6,60.269 l 0,88.723 104.97,-111.043 c 33.85,-35.23 46.73,-46.75 105.65,-47.418 l 48.74,0 0,9.469 c -17.57,7.48 -31.14,23.051 -44.02,37.949" /><path
             id="path44"
             style="fill:#00403b;fill-opacity:1;fill-rule:nonzero;stroke:none"
             d="m 1697.85,837.633 c -11.35,2.48 -16.53,5.215 -16.53,23.965 l 0,129.136 136.51,-158.629 16.55,0 0,168.275 c 0,15.43 2.47,21.24 16.58,23.98 l 0,4.15 -54.92,0 0,-4.15 c 15.46,-2.74 17.1,-9.65 17.1,-25.087 l 0,-105.656 -115.29,134.893 -54.91,0 0,-4.15 c 4.43,-0.52 11.59,-1.36 15.2,-9.38 1.63,-3.85 1.63,-8 1.63,-13.5 l 0,-139.882 c 0,-9.364 -0.81,-14.883 -4.95,-19.317 -3.61,-3.554 -7.73,-4.101 -11.88,-4.648 l 0,-3.867 54.91,0 0,3.867" /><path
             id="path46"
             style="fill:#00403b;fill-opacity:1;fill-rule:nonzero;stroke:none"
             d="m 463.203,837.633 c -11.328,2.48 -16.543,5.215 -16.543,23.965 l 0,129.136 136.524,-158.629 16.543,0 0,168.275 c 0,15.43 2.48,21.24 16.582,23.98 l 0,4.15 -54.903,0 0,-4.15 c 15.43,-2.74 17.09,-9.65 17.09,-25.087 l 0,-105.656 -115.293,134.893 -54.922,0 0,-4.15 c 4.434,-0.52 11.602,-1.36 15.215,-9.38 1.633,-3.85 1.633,-8 1.633,-13.5 l 0,-139.882 c 0,-9.364 -0.813,-14.883 -4.961,-19.317 -3.606,-3.554 -7.719,-4.101 -11.887,-4.648 l 0,-3.867 54.922,0 0,3.867" /><path
             id="path48"
             style="fill:#00403b;fill-opacity:1;fill-rule:nonzero;stroke:none"
             d="m 1897.15,936.398 c 4.39,5.774 12.13,11.293 22.05,11.293 8.29,0 15.74,-3.875 20.72,-9.105 7.17,-7.711 13.22,-24.262 13.22,-44.691 0,-9.375 -0.82,-35.872 -17.36,-45.774 -3.88,-2.226 -8.57,-3.32 -12.96,-3.32 -25.42,0 -35.34,30.633 -35.34,55.156 0,14.367 3.06,27.848 9.67,36.441 z M 1869,847.82 c 15.44,-16.269 34.24,-18.738 49.64,-18.738 51.09,0 71.2,35.563 71.2,67.848 0,34.761 -22.34,66.754 -68.68,66.754 -43.56,0 -70.36,-31.188 -70.36,-68.129 0,-18.77 6.91,-36.125 18.2,-47.735" /><path
             id="path50"
             style="fill:#00403b;fill-opacity:1;fill-rule:nonzero;stroke:none"
             d="m 2005.18,925.891 0,-48.278 c 0,-10.195 0.53,-22.343 8.8,-32.812 3.6,-4.707 13.83,-15.719 36.7,-15.719 22.33,0 38.64,11.832 47.98,24.52 1.97,-7.707 5.54,-15.969 18.24,-25.364 l 30.33,22.629 -1.66,2.735 c -14.34,2.761 -14.34,12.988 -14.34,26.503 l 0,83.579 -50.76,-10.227 0,-3.836 c 13.51,-1.93 16.33,-7.172 16.33,-20.43 l 0,-44.402 c 0,-5.809 -0.32,-14.074 -6.66,-21.512 -4.98,-5.8 -13.27,-9.941 -24.02,-9.941 -12.68,0 -21.24,6.34 -24.53,16.562 -1.38,4.411 -1.94,8.805 -1.94,14.891 l 0,78.895 -49.94,-10.227 0,-3.836 c 14.09,-1.93 15.47,-9.121 15.47,-23.73" /><path
             id="path52"
             style="fill:#00403b;fill-opacity:1;fill-rule:nonzero;stroke:none"
             d="m 2314.22,936.105 c 8.83,11.016 20.12,11.579 25.11,11.579 6.31,0 17.1,-1.098 24.55,-12.125 4.39,-6.629 5.22,-12.704 5.77,-19.598 l -64.57,0 c 1.69,6.332 3.57,13.523 9.14,20.144 z m 25.93,-107.023 c 35.03,0 49.12,19.84 60.4,43.031 l -4.17,2.746 c -7.11,-6.64 -20.64,-19.304 -46.85,-19.304 -13.78,0 -33.93,4.129 -41.97,26.195 -2.72,7.73 -3.04,13.242 -3.04,18.77 l 99.07,0 c -0.84,12.953 -3.32,25.929 -10.23,36.968 -14.88,24.258 -39.95,25.926 -51.53,25.926 -44.7,0 -67.88,-34.223 -67.88,-67.859 0,-32.278 20.67,-66.473 66.2,-66.473" /><path
             id="path54"
             style="fill:#00403b;fill-opacity:1;fill-rule:nonzero;stroke:none"
             d="m 658.469,936.105 c 8.816,11.016 20.125,11.579 25.105,11.579 6.321,0 17.09,-1.098 24.531,-12.125 4.434,-6.629 5.235,-12.704 5.782,-19.598 l -64.539,0 c 1.648,6.332 3.582,13.523 9.121,20.144 z m 25.926,-107.023 c 35.039,0 49.101,19.84 60.41,43.031 l -4.16,2.746 c -7.149,-6.64 -20.665,-19.304 -46.868,-19.304 -13.797,0 -33.953,4.129 -41.961,26.195 -2.734,7.73 -3.027,13.242 -3.027,18.77 l 99.043,0 c -0.84,12.953 -3.32,25.929 -10.227,36.968 -14.871,24.258 -39.96,25.926 -51.55,25.926 -44.7,0 -67.871,-34.223 -67.871,-67.859 0,-32.278 20.671,-66.473 66.211,-66.473" /><path
             id="path56"
             style="fill:#00403b;fill-opacity:1;fill-rule:nonzero;stroke:none"
             d="m 2467.01,892.801 c 9.93,3.297 12.42,4.414 20.68,9.906 l 0,-35.309 c -12.12,-14.316 -24.53,-15.429 -27.55,-15.429 -10.23,0 -17.7,7.422 -17.7,16.808 0,15.743 17.4,21.532 24.57,24.024 z M 2448,829.352 c 21.77,0 33.07,11.312 42.21,20.39 3.01,-9.648 6.61,-14.883 16.24,-21.23 l 30.92,23.176 -1.94,3.308 c -14.36,6.055 -14.65,12.402 -14.65,28.145 l 0,29.781 c 0,14.64 0,25.129 -7.98,35.308 -11.59,14.907 -31.16,15.739 -41.09,15.739 -11.3,0 -27.86,-1.66 -47.47,-8.844 l -4.39,-29.234 4.39,0 c 3.89,4.707 8.01,9.668 15.16,14.074 7.73,4.68 17.1,7.18 25.39,7.18 8.28,0 16.85,-2.766 20.42,-9.938 1.38,-3.035 1.92,-6.332 1.92,-9.09 0,-13.25 -13.51,-17.691 -26.72,-21.254 l -9.37,-2.218 c -12.99,-3.305 -42.8,-11.028 -42.8,-39.735 0,-14.601 9.15,-35.558 39.76,-35.558" /><path
             id="path58"
             style="fill:#00403b;fill-opacity:1;fill-rule:nonzero;stroke:none"
             d="m 2547.99,925.891 0,-48.278 c 0,-10.195 0.56,-22.343 8.81,-32.812 3.59,-4.707 13.83,-15.719 36.7,-15.719 22.35,0 38.65,11.832 48,24.52 1.96,-7.707 5.53,-15.969 18.2,-25.364 l 30.34,22.629 -1.66,2.735 c -14.32,2.761 -14.32,12.988 -14.32,26.503 l 0,83.579 -50.78,-10.227 0,-3.836 c 13.5,-1.93 16.28,-7.172 16.28,-20.43 l 0,-44.402 c 0,-5.809 -0.26,-14.074 -6.61,-21.512 -4.98,-5.8 -13.22,-9.941 -23.99,-9.941 -12.71,0 -21.24,6.34 -24.53,16.562 -1.4,4.411 -1.96,8.805 -1.96,14.891 l 0,78.895 -49.93,-10.227 0,-3.836 c 14.07,-1.93 15.45,-9.121 15.45,-23.73" /><path
             id="path60"
             style="fill:#1266ac;fill-opacity:1;fill-rule:nonzero;stroke:none"
             d="m 1241.32,922.859 c -119.11,-5.148 -284.836,-92.558 -284.836,-92.558 0,0 91.446,41.039 192.266,55.551 -8.5,-9.391 -12.64,-19.594 -10.62,-29.34 5.09,-24.582 58.41,-39.93 104.91,-30.324 13.35,2.792 25.22,8.007 36.29,12.246 -9.63,-3.672 -86.26,0.246 -84.77,29.523 1.14,22.227 51.46,33.563 88.75,20.137 30.95,-11.125 53.51,-51.535 45.32,-69.289 1.8,2.519 3.35,5.234 4.67,8.097 14.1,30.692 2.13,100.036 -91.98,95.957" /><path
             id="path62"
             style="fill:#1266ac;fill-opacity:1;fill-rule:nonzero;stroke:none"
             d="m 1624.14,895.676 c -4.76,24.679 -46.37,37.406 -93.02,28.457 -19.83,-3.778 -37.45,-12.168 -51.26,-20.102 -32.42,-18.617 -79.04,-59.258 -79.04,-59.258 11.17,7.918 25.53,15.399 40.64,22.528 19.59,9.152 110.67,44.996 121.59,14.082 4.86,-13.809 -12.37,-32.742 -59.09,-38.692 -12.52,-1.589 -28.66,-0.945 -37.34,3.36 16.37,-12.703 47.68,-17.696 81.61,-11.192 46.65,8.946 80.61,36.18 75.91,60.817" /><path
             id="path64"
             style="fill:#881211;fill-opacity:1;fill-rule:nonzero;stroke:none"
             d="m 937.02,839.254 c 0,0 373.68,195.316 558.92,166.676 -72.48,-108.832 -153.91,-188.2 -153.91,-188.2 117.46,78.688 189.42,159.715 232.58,234.38 -232.85,92.44 -637.59,-212.856 -637.59,-212.856" /><path
             id="path66"
             style="fill:#881211;fill-opacity:1;fill-rule:nonzero;stroke:none"
             d="m 1564.08,1128.35 c -37.63,58.65 -80.29,68.53 -80.29,68.53 -108.35,28.91 -283.76,-117.15 -283.76,-117.15 232.96,278.41 149.64,356.06 149.64,356.06 176.09,0 247.47,-92.81 247.47,-92.81 21.92,-67.79 -3.06,-144.91 -33.06,-214.63 z m 52.31,228.9 c 0,0 -38.33,50.51 -128.6,86.39 -4.81,31.43 -12.78,58.65 -21.89,82.92 4.9,-21.39 5.82,-52.12 3.69,-76.11 -54.98,19.09 -126.91,32.14 -218.35,27.27 0,0 196.2,-91.75 -201.32,-522.927 0,0 325.52,223.177 433.87,194.207 0,0 46.56,-6.48 94.28,-86.8 87.87,164.71 38.32,295.05 38.32,295.05" /><path
             id="path68"
             style="fill:#881211;fill-opacity:1;fill-rule:nonzero;stroke:none"
             d="m 1450.08,1518.33 c -102.96,14.82 -159.42,-16.35 -165.88,-19.99 107.68,-2.96 129.03,-14.39 166.88,-24.07 2.62,14.41 -1,44.06 -1,44.06" /><path
             id="path70"
             style="fill:#00403b;fill-opacity:1;fill-rule:nonzero;stroke:none"
             d="m 540.414,219.059 c -17.426,-6.309 -35.277,-9.039 -53.758,-9.039 -70.347,0 -87.777,46.621 -87.777,75.82 0,48.301 38.43,79.371 92.398,79.371 16.59,0 32.969,-2.52 49.137,-6.723 l 0,-35.066 -3.777,0 c -5.668,18.687 -23.942,21.637 -39.899,21.637 -34.226,0 -57.961,-20.379 -57.961,-55.45 0,-34.437 22.051,-59.007 57.121,-59.007 15.747,0 36.54,5.039 40.739,22.679 l 3.777,0 0,-34.222" /><path
             id="path72"
             style="fill:#00403b;fill-opacity:1;fill-rule:nonzero;stroke:none"
             d="m 887.129,321.109 -19.32,-46.621 38.007,0 -18.687,46.621 z m 26.879,-107.73 0,3.57 c 4.832,0.84 9.66,3.153 9.66,9.242 0,3.36 -1.051,6.309 -2.313,9.45 l -7.347,19.32 -55.02,0 -7.773,-19.75 c -1.469,-3.981 -2.309,-7.34 -2.309,-9.242 0,-5.867 5.043,-8.18 10.082,-9.02 l 0,-3.57 -47.039,0 0,3.57 c 7.77,1.063 10.918,4.41 17.012,18.692 l 55.019,126.621 24.782,0 L 959.789,239 c 6.719,-16.168 8.399,-19.32 18.477,-22.051 l 0,-3.57 -64.258,0" /><path
             id="path74"
             style="fill:#00403b;fill-opacity:1;fill-rule:nonzero;stroke:none"
             d="m 1412.75,357.871 c -10.49,-1.68 -13.01,-5.883 -13.01,-16.391 l 0,-128.101 -21,0 -95.14,112.551 0,-90.719 c 0,-10.699 1.47,-16.582 12.82,-18.262 l 0,-3.57 -46.84,0 0,3.57 c 11.56,1.473 13.24,6.5 13.24,17.641 l 0,108.57 c 0,8.828 -3.78,13.871 -13.24,14.899 l 0,3.582 51.67,0 77.49,-93.653 0,74.961 c 0,9.66 -2.94,13.653 -12.82,14.922 l 0,3.77 46.83,0 0,-3.77" /><path
             id="path76"
             style="fill:#00403b;fill-opacity:1;fill-rule:nonzero;stroke:none"
             d="m 1753.37,321.109 -19.32,-46.621 38.01,0 -18.69,46.621 z m 26.87,-107.73 0,3.57 c 4.85,0.84 9.67,3.153 9.67,9.242 0,3.36 -1.05,6.309 -2.3,9.45 l -7.37,19.32 -55.02,0 -7.77,-19.75 c -1.46,-3.981 -2.3,-7.34 -2.3,-9.242 0,-5.867 5.04,-8.18 10.07,-9.02 l 0,-3.57 -47.03,0 0,3.57 c 7.78,1.063 10.92,4.41 17.02,18.692 l 55.01,126.621 24.79,0 L 1826.03,239 c 6.71,-16.168 8.39,-19.32 18.47,-22.051 l 0,-3.57 -64.26,0" /><path
             id="path78"
             style="fill:#00403b;fill-opacity:1;fill-rule:nonzero;stroke:none"
             d="m 2167.9,249.512 c 0,-12.621 4.63,-15.762 16.6,-15.762 34.65,0 50.2,26.031 50.2,54.609 0,33.379 -17.85,52.692 -51.47,52.692 l -15.33,0 0,-91.539 z m -38.85,92.597 c 0,9.661 -2.71,14.7 -12.81,15.95 l 0,3.582 82.75,0 c 26.66,0 50.82,-8.403 65.1,-32.129 6.94,-11.762 10.92,-26.25 10.92,-39.903 0,-34.648 -19.53,-62.988 -53.13,-72.66 -9.66,-2.73 -19.96,-3.57 -30.03,-3.57 l -75.61,0 0,3.57 c 10.29,1.903 12.81,6.313 12.81,16.391 l 0,108.769" /><path
             id="path80"
             style="fill:#00403b;fill-opacity:1;fill-rule:nonzero;stroke:none"
             d="m 2611.01,321.109 -19.32,-46.621 38.01,0 -18.69,46.621 z m 26.89,-107.73 0,3.57 c 4.82,0.84 9.65,3.153 9.65,9.242 0,3.36 -1.04,6.309 -2.31,9.45 l -7.34,19.32 -55.02,0 -7.77,-19.75 c -1.49,-3.981 -2.33,-7.34 -2.33,-9.242 0,-5.867 5.06,-8.18 10.1,-9.02 l 0,-3.57 -47.05,0 0,3.57 c 7.77,1.063 10.92,4.41 17.01,18.692 l 55.02,126.621 24.79,0 L 2683.68,239 c 6.72,-16.168 8.4,-19.32 18.48,-22.051 l 0,-3.57 -64.26,0" /></g></g></g></g></svg>